<?xml version="1.0" encoding="UTF-8"?>
<svg xmlns="http://www.w3.org/2000/svg" xmlns:xlink="http://www.w3.org/1999/xlink" width="50px" height="50px" viewBox="0 0 50 50" version="1.1">
<g id="surface1">
<path style=" stroke:none;fill-rule:nonzero;fill:rgb(0%,29.019608%,59.607843%);fill-opacity:1;" d="M 42.058594 23.058594 C 42.394531 27.183594 43.011719 34.597656 42.371094 35.480469 C 41.582031 36.566406 34.445312 39.164062 25.398438 39.398438 C 19.273438 39.558594 9.429688 35.039062 9.257812 34.15625 C 9.109375 33.382812 9.878906 27.128906 9.851562 23.210938 C 6.621094 21.710938 3.878906 20.386719 2.71875 19.5625 C 6.261719 17.582031 11.53125 15.703125 15.074219 13.71875 C 17.625 12.304688 25.617188 8.621094 25.617188 8.621094 C 25.617188 8.621094 32.21875 11.878906 34.203125 12.871094 C 36.613281 14.003906 46.390625 17.6875 48.515625 18.820312 C 47.207031 20.035156 44.839844 21.511719 42.058594 23.058594 Z M 42.058594 23.058594 "/>
<path style=" stroke:none;fill-rule:nonzero;fill:rgb(100%,89.411765%,59.215686%);fill-opacity:1;" d="M 7.65625 44.292969 C 7.664062 44.910156 4.980469 45.59375 3.457031 45.058594 L 3.339844 43.050781 C 3.339844 43.050781 2.925781 44.410156 2.453125 45 C 1.980469 44.882812 0.796875 44.230469 0.796875 44.230469 C 0.796875 44.230469 1.625 41.039062 2.214844 39.796875 C 2.6875 38.910156 3.28125 38.082031 3.753906 37.253906 C 4.046875 36.792969 4.160156 36.449219 4.265625 36.039062 C 4.105469 35.914062 3.96875 35.761719 3.875 35.589844 C 3.253906 34.472656 3.863281 33.371094 5.121094 33.234375 C 5.15625 33.230469 5.191406 33.226562 5.226562 33.222656 C 6.574219 33.148438 7.203125 34.730469 6.550781 35.808594 C 6.476562 35.933594 6.390625 36.035156 6.292969 36.117188 C 7.699219 39.851562 7.636719 42.523438 7.65625 44.292969 Z M 7.65625 44.292969 "/>
<path style=" stroke:none;fill-rule:nonzero;fill:rgb(100%,100%,100%);fill-opacity:1;" d="M 4.214844 38.832031 C 4.121094 39.347656 3.988281 39.855469 3.882812 40.371094 C 3.804688 40.777344 3.507812 41.285156 3.585938 41.695312 C 3.605469 41.804688 3.75 41.890625 3.855469 41.847656 C 4.316406 41.660156 4.367188 40.953125 4.445312 40.527344 C 4.550781 39.96875 4.554688 39.394531 4.46875 38.832031 C 4.449219 38.707031 4.238281 38.710938 4.214844 38.832031 Z M 5.121094 39.734375 C 4.984375 40.332031 4.980469 40.945312 4.949219 41.558594 C 4.917969 42.257812 4.792969 43.011719 4.972656 43.695312 C 5.007812 43.835938 5.214844 43.832031 5.25 43.695312 C 5.410156 43.105469 5.355469 42.464844 5.363281 41.855469 C 5.375 41.144531 5.429688 40.429688 5.28125 39.734375 C 5.261719 39.652344 5.136719 39.652344 5.121094 39.734375 Z M 20.40625 25.035156 C 21.542969 25.804688 22.863281 26.222656 24.023438 26.964844 C 24.621094 27.34375 25.417969 27.867188 26.109375 28.054688 C 26.457031 28.152344 27.226562 27.601562 27.511719 27.472656 C 28.960938 26.816406 30.300781 25.917969 31.695312 25.15625 C 33.777344 24.023438 36.011719 23.246094 38.183594 22.308594 C 39.933594 21.554688 42.101562 20.859375 43.5 19.507812 C 43.582031 19.429688 43.476562 19.3125 43.382812 19.355469 C 39.972656 20.976562 36.359375 22.121094 32.957031 23.742188 C 30.652344 24.84375 28.511719 26.289062 26.292969 27.554688 C 25.859375 27.800781 24.625 26.886719 24.207031 26.648438 C 23.003906 25.972656 21.757812 25.457031 20.515625 24.84375 C 20.386719 24.78125 20.285156 24.957031 20.40625 25.035156 Z M 22.472656 36.21875 C 27.265625 37.472656 33.335938 37.09375 37.628906 34.507812 C 37.714844 34.457031 37.660156 34.3125 37.5625 34.347656 C 32.566406 36.054688 27.738281 36.488281 22.5 36.011719 C 22.378906 36 22.359375 36.191406 22.472656 36.21875 Z M 22.472656 36.21875 "/>
<path style=" stroke:none;fill-rule:nonzero;fill:rgb(0%,0%,0%);fill-opacity:1;" d="M 48.796875 18.339844 C 47.386719 17.480469 45.699219 16.933594 44.175781 16.320312 C 41.859375 15.386719 39.53125 14.484375 37.214844 13.558594 C 33.542969 12.085938 30.039062 10.234375 26.460938 8.546875 C 25.566406 8.128906 25.363281 8.269531 24.472656 8.703125 C 22.492188 9.667969 20.535156 10.679688 18.554688 11.652344 C 16.359375 12.726562 14.234375 13.9375 12.023438 14.984375 C 9.058594 16.386719 5.894531 17.507812 3.082031 19.214844 C 3.042969 19.191406 3.003906 19.167969 2.964844 19.140625 C 2.417969 18.800781 1.984375 19.617188 2.472656 19.984375 C 3.289062 20.601562 4.167969 21.160156 5.082031 21.671875 C 4.53125 22.703125 4.652344 24.1875 4.652344 25.3125 C 4.652344 26.78125 4.644531 28.246094 4.640625 29.710938 C 4.636719 30.8125 4.726562 31.980469 4.691406 33.121094 C 3.835938 33.300781 3.191406 34.128906 3.300781 35.039062 C 3.363281 35.566406 3.621094 36.007812 3.988281 36.324219 C 3.339844 37.734375 2.261719 38.90625 1.671875 40.359375 C 1.164062 41.621094 0.855469 42.855469 0.546875 44.164062 C 0.523438 44.273438 0.5625 44.402344 0.667969 44.453125 C 1.222656 44.738281 1.804688 45 2.394531 45.203125 C 2.488281 45.238281 2.582031 45.183594 2.632812 45.109375 C 2.859375 44.777344 3.039062 44.429688 3.191406 44.066406 C 3.214844 44.398438 3.234375 44.730469 3.25 45.0625 C 3.253906 45.15625 3.308594 45.234375 3.402344 45.261719 C 4.980469 45.707031 8.050781 45.925781 8.066406 43.699219 C 8.085938 41.269531 7.644531 38.636719 6.734375 36.316406 C 7.15625 35.851562 7.351562 35.164062 7.261719 34.515625 C 7.15625 33.746094 6.304688 32.511719 5.496094 32.875 C 5.535156 31.582031 5.351562 30.203125 5.351562 29.066406 C 5.347656 27.816406 5.363281 26.5625 5.328125 25.3125 C 5.296875 24.15625 5.234375 22.925781 5.746094 22.035156 C 6.972656 22.683594 8.253906 23.269531 9.535156 23.828125 C 9.445312 26.160156 9.367188 28.480469 9.171875 30.816406 C 9.046875 32.3125 8.382812 34.023438 9.699219 35.042969 C 11.726562 36.617188 14.296875 37.511719 16.699219 38.332031 C 20.222656 39.53125 23.683594 40.113281 27.398438 39.902344 C 31.257812 39.683594 35.136719 39.019531 38.824219 37.855469 C 40.128906 37.441406 42.640625 36.847656 43.109375 35.324219 C 43.738281 33.265625 43.273438 30.613281 43.140625 28.515625 C 43.03125 26.785156 42.894531 25.050781 42.730469 23.324219 C 44.882812 22.082031 46.964844 20.738281 48.910156 19.214844 C 49.199219 18.984375 49.074219 18.511719 48.796875 18.339844 Z M 7.234375 43.378906 C 7.203125 44.117188 7.253906 44.351562 6.441406 44.636719 C 5.773438 44.871094 5.003906 45.035156 4.300781 45.011719 C 3.460938 44.984375 3.660156 44.933594 3.617188 44.222656 C 3.59375 43.832031 3.570312 43.441406 3.550781 43.050781 C 3.535156 42.8125 3.210938 42.765625 3.136719 42.992188 C 2.75 44.207031 2.53125 45.003906 1.242188 44.199219 C 1.152344 44.144531 1.097656 44.132812 1.0625 44.136719 C 1.085938 44.101562 1.121094 44.035156 1.15625 43.914062 C 1.292969 43.457031 1.503906 43.042969 1.628906 42.574219 C 1.976562 41.257812 2.355469 40.074219 3.042969 38.882812 C 3.535156 38.035156 3.9375 37.332031 4.222656 36.503906 C 4.609375 36.757812 5.085938 36.886719 5.578125 36.863281 C 5.773438 36.851562 5.949219 36.8125 6.113281 36.746094 C 6.789062 38.902344 7.328125 41.042969 7.234375 43.378906 Z M 5.703125 33.804688 C 5.972656 33.914062 6.152344 34.164062 6.25 34.429688 C 6.476562 35.039062 6.242188 35.796875 5.574219 35.964844 C 4.933594 36.132812 4.273438 35.648438 4.050781 35.078125 C 3.695312 34.148438 4.414062 33.609375 5.199219 33.367188 C 5.355469 33.542969 5.460938 33.703125 5.703125 33.804688 Z M 41.972656 34.15625 C 41.949219 34.753906 41.980469 35.089844 41.472656 35.414062 C 40.570312 35.992188 39.503906 36.332031 38.5 36.667969 C 34.925781 37.863281 31.144531 38.4375 27.398438 38.710938 C 21.386719 39.152344 15.734375 37.042969 10.351562 34.566406 C 9.570312 34.207031 9.523438 33.949219 9.546875 33.132812 C 9.582031 31.945312 9.699219 30.765625 9.789062 29.582031 C 9.921875 27.832031 10.191406 25.941406 10.179688 24.109375 C 11.4375 24.652344 12.6875 25.175781 13.882812 25.726562 C 16.226562 26.804688 18.570312 27.890625 20.878906 29.046875 C 21.855469 29.535156 22.820312 30.035156 23.765625 30.574219 C 24.425781 30.949219 25.234375 31.183594 25.792969 31.691406 C 25.917969 31.808594 26.09375 31.835938 26.246094 31.75 C 31.167969 29.066406 36.472656 26.789062 41.453125 24.042969 C 41.683594 27.414062 42.097656 30.777344 41.972656 34.15625 Z M 42.847656 22.132812 C 40.464844 23.503906 38.015625 24.765625 35.570312 26.019531 C 33.210938 27.230469 30.835938 28.417969 28.484375 29.648438 C 28.222656 29.785156 26.082031 30.957031 26.199219 31.058594 C 25.738281 30.660156 25.34375 30.164062 24.824219 29.84375 C 21.199219 27.601562 17.183594 25.9375 13.324219 24.160156 C 11.140625 23.15625 8.863281 22.222656 6.664062 21.160156 C 6.859375 21.054688 7.082031 20.96875 7.339844 20.90625 C 9.765625 20.289062 12.265625 20.109375 14.746094 19.855469 C 17.621094 19.5625 20.445312 19.1875 23.332031 19.035156 C 23.382812 19.03125 23.421875 19.011719 23.449219 18.980469 C 24.019531 19.519531 24.996094 19.886719 25.511719 19.976562 C 26.75 20.183594 29.753906 20.289062 30.210938 18.640625 C 30.683594 16.9375 28.28125 16.429688 27.070312 16.539062 C 27.050781 16.523438 27.023438 16.515625 26.996094 16.515625 C 25.863281 16.457031 24.125 16.503906 23.320312 17.425781 C 22.914062 17.886719 22.945312 18.316406 23.195312 18.6875 C 20.136719 18.59375 17.148438 19.128906 14.117188 19.417969 C 11.535156 19.664062 8.832031 19.800781 6.34375 20.617188 C 6.195312 20.667969 6.058594 20.730469 5.933594 20.796875 C 5.054688 20.355469 4.195312 19.886719 3.359375 19.382812 C 8.285156 17.089844 13.21875 14.847656 18.109375 12.472656 C 20.09375 11.507812 22.101562 10.605469 24.128906 9.738281 C 24.621094 9.527344 25.109375 9.304688 25.597656 9.089844 C 25.882812 9.238281 26.167969 9.382812 26.453125 9.53125 C 33.316406 13.132812 40.425781 15.941406 47.53125 18.996094 C 46.144531 20.246094 44.4375 21.214844 42.847656 22.132812 Z M 24.394531 17.421875 C 25.148438 17.054688 26.15625 16.839844 26.996094 16.796875 C 27.015625 16.796875 27.035156 16.792969 27.050781 16.785156 C 27.757812 16.984375 30.125 17.9375 29.101562 18.710938 C 28.15625 19.425781 26.597656 19.34375 25.492188 19.179688 C 24.566406 19.042969 22.9375 18.136719 24.394531 17.421875 Z M 24.394531 17.421875 "/>
</g>
</svg>
